HIERARCHY
ROOT Root
{
  OFFSET 0.0 0.0 0.0
  CHANNELS 6 Xposition Yposition Zposition Zrotation Yrotation Xrotation
  JOINT Hips
  {
    OFFSET 0.0 100.0 0.0
    CHANNELS 6 Xposition Yposition Zposition Zrotation Yrotation Xrotation
    JOINT Spine1
    {
      OFFSET 5.003913 -0.037094 -0.013727
      CHANNELS 3 Zrotation Yrotation Xrotation
      JOINT Spine2
      {
        OFFSET 7.125363 -1e-06 0.0
        CHANNELS 3 Zrotation Yrotation Xrotation
        JOINT Chest
        {
          OFFSET 7.594027 1e-06 0.0
          CHANNELS 3 Zrotation Yrotation Xrotation
          JOINT Neck1
          {
            OFFSET 26.313086 -0.460272 -0.181672
            CHANNELS 3 Zrotation Yrotation Xrotation
            JOINT Neck2
            {
              OFFSET 8.045911 0.0 0.0
              CHANNELS 3 Zrotation Yrotation Xrotation
              JOINT Head
              {
                OFFSET 6.432774 0.0 0.0
                CHANNELS 3 Zrotation Yrotation Xrotation
                JOINT HeadEnd
                {
                  OFFSET 16.169773 0.06451 0.00362
                  CHANNELS 3 Zrotation Yrotation Xrotation
                }
                JOINT Jaw
                {
                  OFFSET 0.108741 3.12938 0.002639
                  CHANNELS 3 Zrotation Yrotation Xrotation
                }
                JOINT LeftEye
                {
                  OFFSET 4.45173 8.166359 3.206392
                  CHANNELS 3 Zrotation Yrotation Xrotation
                }
                JOINT RightEye
                {
                  OFFSET 4.436895 8.135758 -3.222429
                  CHANNELS 3 Zrotation Yrotation Xrotation
                }
              }
            }
          }
          JOINT LeftShoulder
          {
            OFFSET 23.218927 5.195579 1.621656
            CHANNELS 3 Zrotation Yrotation Xrotation
            JOINT LeftArm
            {
              OFFSET 15.902118 2e-06 -2e-06
              CHANNELS 3 Zrotation Yrotation Xrotation
              JOINT LeftForeArm
              {
                OFFSET 28.739307 0.0 -1e-06
                CHANNELS 3 Zrotation Yrotation Xrotation
                JOINT LeftHand
                {
                  OFFSET 27.093981 -4e-06 0.0
                  CHANNELS 3 Zrotation Yrotation Xrotation
                  JOINT LeftHandThumb1
                  {
                    OFFSET 2.276781 3.380274 0.83384
                    CHANNELS 3 Zrotation Yrotation Xrotation
                    JOINT LeftHandThumb2
                    {
                      OFFSET 4.705309 -1e-06 -1e-06
                      CHANNELS 3 Zrotation Yrotation Xrotation
                      JOINT LeftHandThumb3
                      {
                        OFFSET 2.798515 0.0 3e-06
                        CHANNELS 3 Zrotation Yrotation Xrotation
                        JOINT LeftHandThumbEnd
                        {
                          OFFSET 3.180793 4e-06 -4e-06
                          CHANNELS 3 Zrotation Yrotation Xrotation
                        }
                      }
                    }
                  }
                  JOINT LeftHandIndex1
                  {
                    OFFSET 3.247786 2.352677 0.137192
                    CHANNELS 3 Zrotation Yrotation Xrotation
                    JOINT LeftHandIndex2
                    {
                      OFFSET 6.367095 1e-06 0.0
                      CHANNELS 3 Zrotation Yrotation Xrotation
                      JOINT LeftHandIndex3
                      {
                        OFFSET 3.662364 0.0 0.0
                        CHANNELS 3 Zrotation Yrotation Xrotation
                        JOINT LeftHandIndex4
                        {
                          OFFSET 2.329242 4e-06 -4e-06
                          CHANNELS 3 Zrotation Yrotation Xrotation
                          JOINT LeftHandIndexEnd
                          {
                            OFFSET 2.767823 1e-06 0.0
                            CHANNELS 3 Zrotation Yrotation Xrotation
                          }
                        }
                      }
                    }
                  }
                  JOINT LeftHandMiddle1
                  {
                    OFFSET 3.163612 0.945023 -0.406112
                    CHANNELS 3 Zrotation Yrotation Xrotation
                    JOINT LeftHandMiddle2
                    {
                      OFFSET 6.276789 3e-06 0.0
                      CHANNELS 3 Zrotation Yrotation Xrotation
                      JOINT LeftHandMiddle3
                      {
                        OFFSET 4.35652 -1e-06 4e-06
                        CHANNELS 3 Zrotation Yrotation Xrotation
                        JOINT LeftHandMiddle4
                        {
                          OFFSET 2.996877 0.0 8e-06
                          CHANNELS 3 Zrotation Yrotation Xrotation
                          JOINT LeftHandMiddleEnd
                          {
                            OFFSET 2.323256 3e-06 -4e-06
                            CHANNELS 3 Zrotation Yrotation Xrotation
                          }
                        }
                      }
                    }
                  }
                  JOINT LeftHandRing1
                  {
                    OFFSET 2.882606 -0.309162 0.107445
                    CHANNELS 3 Zrotation Yrotation Xrotation
                    JOINT LeftHandRing2
                    {
                      OFFSET 6.033198 0.0 4e-06
                      CHANNELS 3 Zrotation Yrotation Xrotation
                      JOINT LeftHandRing3
                      {
                        OFFSET 4.350578 3e-06 0.0
                        CHANNELS 3 Zrotation Yrotation Xrotation
                        JOINT LeftHandRing4
                        {
                          OFFSET 2.651321 2e-06 -7e-06
                          CHANNELS 3 Zrotation Yrotation Xrotation
                          JOINT LeftHandRingEnd
                          {
                            OFFSET 1.937663 1e-06 -4e-06
                            CHANNELS 3 Zrotation Yrotation Xrotation
                          }
                        }
                      }
                    }
                  }
                  JOINT LeftHandPinky1
                  {
                    OFFSET 2.865315 -1.525436 0.575687
                    CHANNELS 3 Zrotation Yrotation Xrotation
                    JOINT LeftHandPinky2
                    {
                      OFFSET 5.54936 1e-06 -8e-06
                      CHANNELS 3 Zrotation Yrotation Xrotation
                      JOINT LeftHandPinky3
                      {
                        OFFSET 3.070974 0.0 -4e-06
                        CHANNELS 3 Zrotation Yrotation Xrotation
                        JOINT LeftHandPinky4
                        {
                          OFFSET 1.549672 1e-06 0.0
                          CHANNELS 3 Zrotation Yrotation Xrotation
                          JOINT LeftHandPinkyEnd
                          {
                            OFFSET 1.952123 0.0 0.0
                            CHANNELS 3 Zrotation Yrotation Xrotation
                          }
                        }
                      }
                    }
                  }
                }
              }
            }
          }
          JOINT RightShoulder
          {
            OFFSET 23.161716 5.296122 -1.380114
            CHANNELS 3 Zrotation Yrotation Xrotation
            JOINT RightArm
            {
              OFFSET -16.027195 -2e-06 1.1e-05
              CHANNELS 3 Zrotation Yrotation Xrotation
              JOINT RightForeArm
              {
                OFFSET -28.736639 4e-06 2e-06
                CHANNELS 3 Zrotation Yrotation Xrotation
                JOINT RightHand
                {
                  OFFSET -27.133619 6e-06 0.0
                  CHANNELS 3 Zrotation Yrotation Xrotation
                  JOINT RightHandThumb1
                  {
                    OFFSET -2.274328 -3.351035 -0.83067
                    CHANNELS 3 Zrotation Yrotation Xrotation
                    JOINT RightHandThumb2
                    {
                      OFFSET -4.703594 -3e-06 2e-06
                      CHANNELS 3 Zrotation Yrotation Xrotation
                      JOINT RightHandThumb3
                      {
                        OFFSET -2.794935 -4e-06 -3e-06
                        CHANNELS 3 Zrotation Yrotation Xrotation
                        JOINT RightHandThumbEnd
                        {
                          OFFSET -3.183852 4e-06 1e-06
                          CHANNELS 3 Zrotation Yrotation Xrotation
                        }
                      }
                    }
                  }
                  JOINT RightHandIndex1
                  {
                    OFFSET -3.253496 -2.33755 -0.127667
                    CHANNELS 3 Zrotation Yrotation Xrotation
                    JOINT RightHandIndex2
                    {
                      OFFSET -6.344434 0.0 0.0
                      CHANNELS 3 Zrotation Yrotation Xrotation
                      JOINT RightHandIndex3
                      {
                        OFFSET -3.654871 0.0 -8e-06
                        CHANNELS 3 Zrotation Yrotation Xrotation
                        JOINT RightHandIndex4
                        {
                          OFFSET -2.327586 -1e-06 0.0
                          CHANNELS 3 Zrotation Yrotation Xrotation
                          JOINT RightHandIndexEnd
                          {
                            OFFSET -2.770001 3e-06 8e-06
                            CHANNELS 3 Zrotation Yrotation Xrotation
                          }
                        }
                      }
                    }
                  }
                  JOINT RightHandMiddle1
                  {
                    OFFSET -3.168223 -0.944764 0.411762
                    CHANNELS 3 Zrotation Yrotation Xrotation
                    JOINT RightHandMiddle2
                    {
                      OFFSET -6.266691 -1e-06 -4e-06
                      CHANNELS 3 Zrotation Yrotation Xrotation
                      JOINT RightHandMiddle3
                      {
                        OFFSET -4.348901 0.0 0.0
                        CHANNELS 3 Zrotation Yrotation Xrotation
                        JOINT RightHandMiddle4
                        {
                          OFFSET -3.00024 2e-06 -4e-06
                          CHANNELS 3 Zrotation Yrotation Xrotation
                          JOINT RightHandMiddleEnd
                          {
                            OFFSET -2.321477 -4e-06 -4e-06
                            CHANNELS 3 Zrotation Yrotation Xrotation
                          }
                        }
                      }
                    }
                  }
                  JOINT RightHandRing1
                  {
                    OFFSET -2.885654 0.293261 -0.119232
                    CHANNELS 3 Zrotation Yrotation Xrotation
                    JOINT RightHandRing2
                    {
                      OFFSET -6.032835 -1e-06 -4e-06
                      CHANNELS 3 Zrotation Yrotation Xrotation
                      JOINT RightHandRing3
                      {
                        OFFSET -4.33881 0.0 -4e-06
                        CHANNELS 3 Zrotation Yrotation Xrotation
                        JOINT RightHandRing4
                        {
                          OFFSET -2.654903 -4e-06 -4e-06
                          CHANNELS 3 Zrotation Yrotation Xrotation
                          JOINT RightHandRingEnd
                          {
                            OFFSET -1.935122 0.0 4e-06
                            CHANNELS 3 Zrotation Yrotation Xrotation
                          }
                        }
                      }
                    }
                  }
                  JOINT RightHandPinky1
                  {
                    OFFSET -2.866241 1.503904 -0.60527
                    CHANNELS 3 Zrotation Yrotation Xrotation
                    JOINT RightHandPinky2
                    {
                      OFFSET -5.553177 -2e-06 0.0
                      CHANNELS 3 Zrotation Yrotation Xrotation
                      JOINT RightHandPinky3
                      {
                        OFFSET -3.062664 -1e-06 -4e-06
                        CHANNELS 3 Zrotation Yrotation Xrotation
                        JOINT RightHandPinky4
                        {
                          OFFSET -1.546529 2e-06 4e-06
                          CHANNELS 3 Zrotation Yrotation Xrotation
                          JOINT RightHandPinkyEnd
                          {
                            OFFSET -1.952341 0.0 -4e-06
                            CHANNELS 3 Zrotation Yrotation Xrotation
                          }
                        }
                      }
                    }
                  }
                }
              }
            }
          }
        }
      }
    }
    JOINT LeftLeg
    {
      OFFSET -8.443107 2.567604 10.043214
      CHANNELS 3 Zrotation Yrotation Xrotation
      JOINT LeftShin
      {
        OFFSET 43.229198 1e-06 -1e-06
        CHANNELS 3 Zrotation Yrotation Xrotation
        JOINT LeftFoot
        {
          OFFSET 42.298611 1e-06 1e-06
          CHANNELS 3 Zrotation Yrotation Xrotation
          JOINT LeftToeBase
          {
            OFFSET 14.165858 1e-06 0.0
            CHANNELS 3 Zrotation Yrotation Xrotation
            JOINT LeftToeEnd
            {
              OFFSET 6.7141 -0.234461 0.0
              CHANNELS 3 Zrotation Yrotation Xrotation
            }
          }
        }
      }
    }
    JOINT RightLeg
    {
      OFFSET -8.303923 2.592729 -10.047278
      CHANNELS 3 Zrotation Yrotation Xrotation
      JOINT RightShin
      {
        OFFSET -43.369682 0.0 1e-06
        CHANNELS 3 Zrotation Yrotation Xrotation
        JOINT RightFoot
        {
          OFFSET -42.260784 4e-06 2e-06
          CHANNELS 3 Zrotation Yrotation Xrotation
          JOINT RightToeBase
          {
            OFFSET -14.222245 -2e-06 -1e-06
            CHANNELS 3 Zrotation Yrotation Xrotation
            JOINT RightToeEnd
            {
              OFFSET -6.660062 0.232574 -2e-06
              CHANNELS 3 Zrotation Yrotation Xrotation
            }
          }
        }
      }
    }
  }
}
MOTION
Frames: 5
Frame Time: 0.03333333333333333
0.0 0.0 0.0 0.0 -0.0 0.0 -0.223422 99.773582 4.676386 90.084068 -1.248377 90.019623 -4.857695 -0.27801 0.154094 -12.532648 -0.500514 -0.392177 16.737499 0.610137 -2.010201 24.475998 -2.924762 2.597112 -2.593123 -0.707581 0.449309 -25.889982 0.113302 0.286456 6e-06 0.0 0.0 -0.046102 0.023752 -0.067942 -0.022417 0.154571 -0.033917 -0.01645 -0.109144 -0.095869 -126.375237 -69.882866 140.16391 29.394958 -56.548771 13.738346 31.88611 -0.031682 0.127757 -8.460433 -0.378604 11.355515 17.636635 -26.322741 52.411205 -19.466665 -14.395598 29.410389 -1e-06 -8.774821 -2e-06 16.506729 -17.789383 5.868133 -0.609777 -1.795654 -3.889329 -4.807087 -11.046811 -2.93785 6e-06 -20.976019 0.0 -5.019969 -25.033554 -4.031878 7e-06 1e-06 -0.0 -10.634533 -5.68697 -3.565589 10.573276 -17.922955 -3.113899 1e-06 -13.821211 3e-06 -0.501776 -31.181507 -4.027016 -11.210417 -60.087231 6.939271 -13.982712 -7.150195 -2.875046 13.772731 -8.401495 -3.218242 0.347737 -34.211555 0.771659 -0.96303 -17.73337 2.621022 0.0 -1e-06 1e-06 -17.346416 -20.095215 -4.20178 21.757561 -1.638377 3.866425 2e-06 -6.338825 1e-06 -1.697588 -22.591747 -6.194004 -0.0 -3e-06 -1e-06 67.929138 -77.713226 124.737106 34.21524 -64.766518 13.709731 29.009327 -0.290031 0.157734 5.164626 -8.39061 22.801014 22.182117 -20.375898 49.933315 -16.701811 -16.74353 28.47653 -4e-06 -12.690601 -3e-06 16.230255 -17.936394 2.602395 -0.105918 -1.513855 -4.275882 -5.039042 -5.612869 -2.953556 5e-06 -11.02052 -3e-06 -6.111299 -15.895328 -3.840466 1e-06 -2e-06 -1e-06 -10.283371 -5.680285 -4.34184 11.028296 -11.302404 -2.372632 -1.384267 -14.238579 -6.32012 -0.625436 -26.924183 -3.827598 -4.588956 -49.952553 -3.927164 -13.708525 -7.363472 -3.720938 18.14115 -14.052738 -3.242674 5e-06 -18.787264 0.0 -0.42971 -8.456041 2.555502 -0.0 0.0 -0.0 -15.923538 -20.094475 -5.473584 30.419214 -7.190826 1.735927 4e-06 -8.162925 -1e-06 -1.8619 -22.861465 -6.167938 -1e-06 -4e-06 -2e-06 178.262192 -2.430146 -16.836382 14.988065 -0.020855 0.049493 -82.627365 -4.995835 -6.159676 -5.721749 1.443463 2.100274 -0.999998 -0.0 -0.0 -1.244895 -4.417545 -11.138988 13.855967 0.069209 -0.126713 -82.360306 4.367598 -4.64951 -5.521608 0.728678 1.679991 -1.000002 0.0 -0.0 
0.0 0.0 0.0 0.0 -0.0 0.0 -0.178094 99.798523 4.668971 90.076195 -1.260343 90.032303 -4.865904 -0.306788 0.13809 -12.537118 -0.472344 -0.317654 16.78245 0.613154 -2.081179 24.955727 -2.880761 2.638938 -2.567512 -0.68612 0.448729 -25.624987 0.109477 0.248573 6e-06 0.0 -0.0 -0.039753 0.021173 -0.040846 -0.018423 0.14581 -0.002679 -0.013387 -0.105506 -0.073867 -126.523148 -69.869347 140.344513 29.919163 -56.564743 13.118746 32.050465 -0.128209 0.051221 -8.423169 -0.34046 11.250563 17.636629 -26.322729 52.41119 -19.466656 -14.395597 29.410381 0.0 -8.774822 0.0 16.459059 -17.768381 5.867944 -0.609777 -1.795654 -3.889324 -4.80709 -11.046811 -2.937853 3e-06 -20.976019 -0.0 -5.019973 -25.033558 -4.031882 4e-06 0.0 2e-06 -10.634535 -5.68697 -3.565586 10.573275 -17.922947 -3.113901 2e-06 -13.821209 2e-06 -0.501779 -31.181501 -4.027016 -11.228983 -60.035561 7.002053 -13.982715 -7.150198 -2.875042 13.772729 -8.401489 -3.218243 0.347732 -34.211544 0.771652 -0.963029 -17.73337 2.62102 -1e-06 -1e-06 0.0 -17.34642 -20.095215 -4.201778 21.757557 -1.638373 3.866425 1e-06 -6.338823 1e-06 -1.697591 -22.591743 -6.194005 2e-06 -6e-06 -0.0 68.018379 -77.636063 124.71756 34.482613 -64.693901 13.406879 29.005154 -0.312458 0.160478 5.266264 -8.278907 22.609592 22.182119 -20.375895 49.933323 -16.701813 -16.74353 28.476532 -3e-06 -12.690603 -4e-06 16.205444 -17.936378 2.591788 -0.105918 -1.513856 -4.275882 -5.039041 -5.612871 -2.953556 6e-06 -11.020525 -3e-06 -6.1113 -15.89533 -3.84047 1e-06 -1e-06 1e-06 -10.28337 -5.680287 -4.341838 11.028295 -11.302406 -2.372632 -1.384269 -14.238582 -6.320124 -0.62544 -26.924187 -3.827601 -4.648053 -50.023468 -3.881491 -13.708526 -7.363474 -3.72094 18.141151 -14.05274 -3.242673 6e-06 -18.78727 -2e-06 -0.429711 -8.456045 2.555503 -0.0 -1e-06 -1e-06 -15.923536 -20.094482 -5.473583 30.419218 -7.190826 1.735925 3e-06 -8.162925 -2e-06 -1.861899 -22.861467 -6.167942 0.0 -5e-06 -4e-06 178.345932 -2.368571 -16.752138 14.760982 -0.013706 0.077478 -82.520958 -5.039327 -6.228683 -5.775129 1.470191 2.106023 -0.999998 -1e-06 -0.0 -1.101415 -4.405378 -11.15819 13.521523 0.066033 -0.112183 -82.2173 4.334971 -4.644736 -5.614751 0.704076 1.675264 -1.000002 -0.0 0.0 
0.0 0.0 0.0 0.0 -0.0 0.0 -0.131178 99.800423 4.714028 90.08548 -1.273228 90.037575 -4.88848 -0.347773 0.12092 -12.56181 -0.453875 -0.280843 16.890182 0.612741 -2.117983 25.517248 -2.794263 2.680104 -2.584502 -0.656993 0.448594 -25.313684 0.119183 0.227684 6e-06 0.0 -0.0 -0.04079 0.020689 -0.025456 -0.033214 0.135269 0.016959 -0.025892 -0.096027 -0.06378 -126.718834 -69.836685 140.593948 30.430231 -56.545708 12.625491 32.299305 -0.201575 -0.007464 -8.446888 -0.311171 10.997723 17.636637 -26.322737 52.411205 -19.46666 -14.395598 29.410395 -1e-06 -8.774822 -2e-06 16.429628 -17.777359 5.858022 -0.609776 -1.795653 -3.889328 -4.80709 -11.046809 -2.937848 5e-06 -20.976015 -0.0 -5.019969 -25.033558 -4.031882 4e-06 2e-06 1e-06 -10.634537 -5.686972 -3.565589 10.573277 -17.922951 -3.113899 3e-06 -13.821211 1e-06 -0.501777 -31.181511 -4.027016 -11.276427 -59.976814 6.999176 -13.982716 -7.150198 -2.875042 13.772731 -8.401491 -3.218241 0.347731 -34.211555 0.771656 -0.963028 -17.73337 2.62102 -1e-06 -1e-06 -0.0 -17.346422 -20.095217 -4.201784 21.757566 -1.638376 3.866428 2e-06 -6.338825 -1e-06 -1.697589 -22.591747 -6.194005 -0.0 -3e-06 -0.0 67.953438 -77.551476 124.84008 34.719006 -64.595726 13.139363 28.965551 -0.337489 0.151175 5.333856 -8.130239 22.639387 22.182114 -20.3759 49.933323 -16.701809 -16.74353 28.476536 -2e-06 -12.6906 -2e-06 16.193102 -17.915474 2.587116 -0.105919 -1.513856 -4.275879 -5.039039 -5.612872 -2.953558 4e-06 -11.02052 -2e-06 -6.111299 -15.895329 -3.840467 0.0 -1e-06 0.0 -10.283368 -5.680287 -4.341839 11.028291 -11.302404 -2.372629 -1.384268 -14.238581 -6.320122 -0.62544 -26.924185 -3.827598 -4.691771 -50.040478 -3.865443 -13.708523 -7.363475 -3.720938 18.141148 -14.052739 -3.242673 5e-06 -18.787268 -0.0 -0.429712 -8.456045 2.555502 -1e-06 -0.0 -0.0 -15.923534 -20.094482 -5.473581 30.41921 -7.190824 1.735926 1e-06 -8.162927 -2e-06 -1.861903 -22.861467 -6.16794 1e-06 -5e-06 -2e-06 178.395477 -2.300344 -16.631784 14.678872 -0.013344 0.087372 -82.523293 -5.07673 -6.265304 -5.76329 1.476843 2.107951 -1.0 -1e-06 -0.0 -1.039467 -4.438322 -11.143129 13.427444 0.071318 -0.108299 -82.21521 4.281889 -4.694705 -5.649265 0.692263 1.672882 -1.000002 1e-06 0.0 
0.0 0.0 0.0 0.0 -0.0 0.0 -0.095186 99.797852 4.727609 90.103226 -1.285206 90.040688 -4.900064 -0.397861 0.115077 -12.589685 -0.444847 -0.277591 17.00478 0.60836 -2.127963 26.085043 -2.683011 2.710302 -2.60971 -0.649414 0.459336 -25.061935 0.142903 0.212273 6e-06 0.0 -0.0 -0.040429 0.02015 -0.020616 -0.046544 0.125221 0.025226 -0.038766 -0.086988 -0.06325 -126.865379 -69.799072 140.823135 30.976931 -56.518402 12.194085 32.551132 -0.231482 -0.017084 -8.461936 -0.297074 10.80125 17.636627 -26.322725 52.411179 -19.46666 -14.395597 29.410381 -0.0 -8.774821 -3e-06 16.393803 -17.765026 5.848576 -0.609777 -1.795654 -3.889327 -4.807086 -11.046807 -2.937848 4e-06 -20.976011 -0.0 -5.019972 -25.033548 -4.031878 6e-06 1e-06 -0.0 -10.634534 -5.68697 -3.565586 10.573275 -17.922947 -3.1139 3e-06 -13.821206 1e-06 -0.501776 -31.181505 -4.027016 -11.297431 -59.921783 6.976015 -13.982712 -7.150197 -2.875042 13.772727 -8.401489 -3.218239 0.347734 -34.211544 0.771653 -0.963026 -17.733368 2.621017 -1e-06 -0.0 2e-06 -17.346416 -20.095217 -4.201782 21.757557 -1.638375 3.866429 1e-06 -6.338822 -1e-06 -1.69759 -22.59174 -6.194002 -1e-06 -3e-06 -2e-06 67.804916 -77.480576 125.025551 34.922913 -64.523682 12.957449 28.888617 -0.328709 0.146003 5.361769 -8.024214 22.730774 22.182114 -20.375887 49.933308 -16.701811 -16.74353 28.476532 -2e-06 -12.690598 -4e-06 16.184162 -17.886822 2.595617 -0.10592 -1.513854 -4.27588 -5.03904 -5.612872 -2.953556 5e-06 -11.020524 -5e-06 -6.111298 -15.895328 -3.840469 -0.0 -2e-06 1e-06 -10.283369 -5.680288 -4.34184 11.028292 -11.302404 -2.372633 -1.384268 -14.238581 -6.320121 -0.625438 -26.924187 -3.827603 -4.713042 -49.992153 -3.842074 -13.708525 -7.363476 -3.720939 18.141148 -14.052738 -3.242674 5e-06 -18.787266 -2e-06 -0.429709 -8.456042 2.555501 0.0 -1e-06 -2e-06 -15.923534 -20.094482 -5.473584 30.41921 -7.190824 1.735925 3e-06 -8.162926 -3e-06 -1.861902 -22.861467 -6.16794 1e-06 -3e-06 -3e-06 178.394135 -2.244529 -16.561369 14.666051 -0.016534 0.088937 -82.536263 -5.095258 -6.281873 -5.736676 1.475501 2.106529 -0.999999 -1e-06 -0.0 -1.059005 -4.487006 -11.123956 13.461745 0.078512 -0.116158 -82.239922 4.259684 -4.750914 -5.654457 0.680271 1.67015 -1.000002 -0.0 0.0 
0.0 0.0 0.0 0.0 -0.0 0.0 -0.067041 99.795273 4.683695 90.112984 -1.308792 90.053726 -4.911068 -0.440445 0.124581 -12.61765 -0.443291 -0.285071 17.110603 0.602806 -2.133012 26.626373 -2.544438 2.722097 -2.621617 -0.644222 0.482403 -24.872259 0.173598 0.202981 6e-06 0.0 -0.0 -0.034049 0.019452 -0.016953 -0.047377 0.118947 0.030664 -0.040549 -0.081898 -0.062076 -126.95079 -69.76857 140.994827 31.530855 -56.487877 11.798525 32.760574 -0.25428 -0.004552 -8.46602 -0.304847 10.74429 17.636623 -26.322718 52.411179 -19.46665 -14.395594 29.410381 1e-06 -8.774819 -1e-06 16.33098 -17.729696 5.860695 -0.609776 -1.795653 -3.88933 -4.807088 -11.046807 -2.937849 1e-06 -20.976006 1e-06 -5.01997 -25.033543 -4.03188 5e-06 -1e-06 1e-06 -10.634531 -5.68697 -3.565588 10.573266 -17.922945 -3.113897 1e-06 -13.821203 0.0 -0.501778 -31.181494 -4.027017 -11.293887 -59.861118 6.963484 -13.982711 -7.150197 -2.875041 13.772723 -8.401486 -3.21824 0.347729 -34.211536 0.771656 -0.963028 -17.733362 2.621018 -1e-06 0.0 -0.0 -17.346413 -20.095213 -4.201782 21.757553 -1.638373 3.866426 0.0 -6.338821 -0.0 -1.697592 -22.59174 -6.194004 0.0 -2e-06 -1e-06 67.709579 -77.393593 125.146378 35.138691 -64.479263 12.873641 28.772814 -0.281247 0.147388 5.349131 -7.959867 22.812765 22.182116 -20.375889 49.933315 -16.701811 -16.743528 28.476526 -1e-06 -12.6906 -4e-06 16.172878 -17.873211 2.617306 -0.10592 -1.513856 -4.275882 -5.039041 -5.612873 -2.953557 4e-06 -11.020525 -4e-06 -6.111302 -15.895332 -3.84047 0.0 -1e-06 1e-06 -10.283371 -5.68029 -4.34184 11.028293 -11.302402 -2.372633 -1.38427 -14.238581 -6.320123 -0.625439 -26.924191 -3.827603 -4.727557 -49.946194 -3.817044 -13.708524 -7.363477 -3.720942 18.141146 -14.052739 -3.242672 4e-06 -18.78727 -2e-06 -0.42971 -8.456042 2.555501 0.0 -1e-06 -1e-06 -15.923536 -20.094484 -5.473584 30.419207 -7.190823 1.735932 1e-06 -8.162926 -3e-06 -1.861902 -22.861471 -6.167943 -1e-06 -3e-06 -2e-06 178.29599 -2.219615 -16.518091 14.748906 -0.021563 0.082063 -82.554344 -5.103946 -6.272643 -5.687863 1.47302 2.103081 -0.999998 1e-06 -0.0 -1.165529 -4.529659 -11.125737 13.574877 0.082111 -0.122997 -82.240204 4.2623 -4.808228 -5.625129 0.671886 1.669043 -1.000001 -0.0 0.0 
